<?xml version="1.0" standalone="no"?>
<!DOCTYPE svg PUBLIC "-//W3C//DTD SVG 20010904//EN"
 "http://www.w3.org/TR/2001/REC-SVG-20010904/DTD/svg10.dtd">
<svg version="1.0" xmlns="http://www.w3.org/2000/svg"
 width="512.000000pt" height="512.000000pt" viewBox="0 0 512.000000 512.000000"
 preserveAspectRatio="xMidYMid meet">
<metadata>
Created by potrace 1.14, written by Peter Selinger 2001-2017
</metadata>
<g transform="translate(0.000000,512.000000) scale(0.100000,-0.100000)"
fill="#000000" stroke="none">
<path d="M2461 5042 c-258 -247 -470 -586 -541 -869 l-11 -42 -47 28 c-150 88
-398 172 -578 197 -27 3 -58 8 -69 10 -54 11 -174 18 -302 18 -184 1 -176 8
-177 -156 0 -111 12 -315 19 -328 2 -3 6 -25 9 -50 8 -60 16 -101 22 -122 3
-10 7 -30 10 -45 17 -94 112 -336 169 -430 l26 -42 -28 -7 c-75 -16 -219 -72
-318 -122 -102 -52 -263 -152 -310 -193 -11 -10 -51 -43 -90 -74 -104 -85
-245 -232 -245 -255 0 -24 158 -185 271 -277 190 -154 419 -283 615 -345 l103
-32 -16 -26 c-92 -138 -190 -439 -218 -670 -22 -175 -27 -399 -11 -446 5 -16
17 -23 44 -26 43 -6 267 -1 332 6 25 3 70 8 100 11 69 8 263 50 339 75 88 28
222 85 280 120 67 39 72 40 77 13 19 -113 136 -366 242 -522 131 -194 359
-441 404 -438 24 2 181 152 253 242 22 28 46 56 53 63 6 8 41 55 77 106 108
156 219 386 255 533 l11 42 92 -49 c158 -84 339 -142 547 -175 19 -3 42 -7 50
-10 34 -9 204 -18 324 -18 170 0 164 -8 161 185 -2 144 -9 238 -25 338 -18
109 -21 123 -25 130 -2 3 -6 17 -8 31 -24 127 -106 338 -177 455 l-19 30 105
33 c257 81 533 255 765 482 89 87 119 124 119 147 0 20 -201 217 -300 293
-216 168 -445 288 -647 339 l-42 11 27 47 c87 151 171 396 197 572 4 25 8 57
11 71 18 118 26 410 12 452 -11 30 -6 29 -173 31 -341 3 -724 -88 -950 -228
l-39 -24 -41 121 c-70 207 -180 401 -335 592 -92 114 -252 270 -278 272 -13 1
-50 -27 -101 -75z m196 -126 c228 -240 386 -504 455 -759 l21 -81 -33 -25
c-102 -78 -277 -282 -376 -436 -52 -81 -136 -241 -149 -282 -3 -13 -9 -23 -13
-23 -4 0 -29 48 -57 108 -53 113 -160 282 -246 385 -63 76 -204 222 -241 249
-16 10 -28 28 -28 38 0 38 71 235 120 333 56 113 153 262 236 364 62 76 203
223 214 223 4 0 48 -43 97 -94z m-5 -1701 c219 -22 436 -192 522 -408 103
-258 39 -542 -164 -730 -357 -331 -923 -182 -1080 283 -29 85 -36 256 -15 350
61 264 307 482 570 507 33 3 62 7 64 9 2 2 13 2 25 -1 12 -2 47 -7 78 -10z
m-1587 -107 c59 -86 276 -276 425 -374 90 -59 249 -144 298 -158 12 -4 22 -10
22 -14 0 -4 -53 -33 -118 -64 -138 -67 -279 -158 -392 -252 -19 -17 -86 -81
-147 -143 -62 -62 -118 -113 -124 -113 -15 0 -148 38 -174 50 -11 5 -53 23
-94 40 -186 80 -404 232 -583 407 -38 36 -68 69 -68 73 0 14 185 184 269 248
166 127 343 225 507 280 144 49 157 50 179 20z m3161 -13 c165 -53 372 -171
551 -312 91 -72 233 -206 233 -220 0 -18 -174 -179 -281 -260 -201 -152 -410
-259 -597 -303 l-53 -12 -42 48 c-185 211 -469 419 -679 499 -27 10 -48 21
-48 24 0 4 39 24 88 46 48 21 94 44 103 52 8 7 19 13 23 13 14 0 179 111 251
168 107 85 223 196 273 260 30 40 46 39 178 -3z m-1623 -1368 c106 -231 330
-530 490 -651 34 -26 37 -32 32 -65 -10 -64 -66 -214 -117 -316 -57 -115 -134
-233 -221 -343 -65 -82 -215 -242 -227 -242 -4 0 -41 35 -83 77 -233 240 -409
533 -473 788 l-17 67 54 46 c60 53 149 145 204 212 20 25 44 54 54 65 68 80
221 345 245 423 4 12 10 22 14 22 4 0 24 -37 45 -83z"/>
</g>
</svg>
